<svg width="163" height="63" viewBox="0 0 163 63" fill="none" xmlns="http://www.w3.org/2000/svg">
<ellipse cx="41" cy="31.5" rx="36" ry="31.5" fill="#5581FF"/>
<ellipse cx="118" cy="31.5" rx="36" ry="31.5" fill="#EC6693"/>
<g filter="url(#filter0_f_167_721)">
<circle cx="92" cy="34" r="4" fill="#E64C4C"/>
</g>
<g filter="url(#filter1_f_167_721)">
<circle cx="143" cy="35" r="4" fill="#E64C4C"/>
</g>
<ellipse cx="12" cy="53" rx="12" ry="10" fill="#A8C1FF"/>
<ellipse cx="89" cy="53" rx="12" ry="10" fill="#ED90BC"/>
<ellipse cx="66" cy="53" rx="12" ry="10" fill="#A8C1FF"/>
<ellipse cx="143" cy="53" rx="12" ry="10" fill="#ED90BC"/>
<circle cx="97" cy="17" r="11" fill="#F5F5F5"/>
<circle cx="139" cy="17" r="11" fill="#F5F5F5"/>
<circle cx="95" cy="18" r="6" fill="black"/>
<circle cx="134" cy="18" r="6" fill="black"/>
<path d="M94 34C100.667 36.8333 119 40.8 139 34" stroke="#FFF3F3" stroke-width="2" stroke-linecap="round"/>
<g filter="url(#filter2_f_167_721)">
<circle cx="14" cy="32" r="4" fill="#E64C4C"/>
</g>
<g filter="url(#filter3_f_167_721)">
<circle cx="65" cy="33" r="4" fill="#E64C4C"/>
</g>
<path d="M18 33C24.6667 35.8333 43 39.8 63 33" stroke="white" stroke-width="2" stroke-linecap="round"/>
<circle cx="20" cy="17" r="11" fill="#F5F5F5"/>
<circle cx="62" cy="17" r="11" fill="#F5F5F5"/>
<circle cx="22" cy="18" r="6" fill="black"/>
<circle cx="60" cy="18" r="6" fill="black"/>
<circle cx="62" cy="16" r="1" fill="#D9D9D9"/>
<circle cx="92" cy="17" r="1" fill="#D9D9D9"/>
<circle cx="131" cy="17" r="1" fill="#D9D9D9"/>
<circle cx="19" cy="16" r="1" fill="#D9D9D9"/>
<defs>
<filter id="filter0_f_167_721" x="83" y="25" width="18" height="18" filterUnits="userSpaceOnUse" color-interpolation-filters="sRGB">
<feFlood flood-opacity="0" result="BackgroundImageFix"/>
<feBlend mode="normal" in="SourceGraphic" in2="BackgroundImageFix" result="shape"/>
<feGaussianBlur stdDeviation="2.5" result="effect1_foregroundBlur_167_721"/>
</filter>
<filter id="filter1_f_167_721" x="134" y="26" width="18" height="18" filterUnits="userSpaceOnUse" color-interpolation-filters="sRGB">
<feFlood flood-opacity="0" result="BackgroundImageFix"/>
<feBlend mode="normal" in="SourceGraphic" in2="BackgroundImageFix" result="shape"/>
<feGaussianBlur stdDeviation="2.5" result="effect1_foregroundBlur_167_721"/>
</filter>
<filter id="filter2_f_167_721" x="5" y="23" width="18" height="18" filterUnits="userSpaceOnUse" color-interpolation-filters="sRGB">
<feFlood flood-opacity="0" result="BackgroundImageFix"/>
<feBlend mode="normal" in="SourceGraphic" in2="BackgroundImageFix" result="shape"/>
<feGaussianBlur stdDeviation="2.5" result="effect1_foregroundBlur_167_721"/>
</filter>
<filter id="filter3_f_167_721" x="56" y="24" width="18" height="18" filterUnits="userSpaceOnUse" color-interpolation-filters="sRGB">
<feFlood flood-opacity="0" result="BackgroundImageFix"/>
<feBlend mode="normal" in="SourceGraphic" in2="BackgroundImageFix" result="shape"/>
<feGaussianBlur stdDeviation="2.5" result="effect1_foregroundBlur_167_721"/>
</filter>
</defs>
</svg>
